<svg viewBox="31.63 75.68 449.02 361.7" fill="currentColor">
    <path d="M201.688 75.7617C202.499 75.7519 203.311 75.7421 204.148 75.732C229.604 75.4882 252.797 77.5998 277 86C277.663 86.2291 278.325 86.4583 279.008 86.6943C302.019 94.8501 322.582 107.992 340 125C340.98 125.909 341.962 126.817 342.945 127.723C374.515 157.347 391.808 203.258 394.221 245.901C394.338 249.914 394.386 253.923 394.375 257.938C394.375 258.648 394.375 259.359 394.374 260.092C394.335 273.346 393.008 286.064 390 299C389.823 299.766 389.647 300.532 389.465 301.322C384.815 320.63 375.997 339.505 365 356C380.822 356.67 390.805 352.07 404.063 343.875C419.684 334.463 436.955 332.772 454.609 337.027C463.824 339.671 473.841 343.124 479.076 351.779C480.175 354.42 480.274 356.426 480.306 359.284C480.322 360.339 480.338 361.394 480.355 362.481C480.363 364.184 480.363 364.184 480.371 365.922C480.38 367.096 480.389 368.27 480.398 369.479C480.413 371.964 480.422 374.449 480.426 376.934C480.437 380.722 480.487 384.509 480.537 388.297C480.547 390.714 480.554 393.13 480.559 395.547C480.578 396.674 480.598 397.802 480.618 398.963C480.578 405.896 479.655 410.701 475 416C469.689 420.426 465.01 420.538 458.203 420.336C454.583 419.956 451.612 419.036 448.234 417.742C437.773 414.267 426.637 416.427 416.719 420.602C412.749 422.643 409.106 425.152 405.403 427.633C395.828 433.907 385.803 437.154 374.389 437.14C373.631 437.143 372.872 437.146 372.091 437.149C369.552 437.158 367.014 437.16 364.476 437.161C362.654 437.166 360.832 437.171 359.01 437.176C354.059 437.189 349.107 437.196 344.156 437.2C341.056 437.203 337.956 437.207 334.855 437.212C325.136 437.225 315.417 437.235 305.697 437.239C294.516 437.243 283.335 437.261 272.153 437.29C263.49 437.312 254.826 437.322 246.163 437.323C240.999 437.324 235.836 437.33 230.673 437.348C225.802 437.364 220.932 437.366 216.061 437.358C214.289 437.357 212.516 437.361 210.744 437.371C195.063 437.454 179.634 435.853 164.563 431.312C163.7 431.058 162.838 430.803 161.95 430.54C114.466 416.081 75.3457 384.268 51.6934 340.587C28.5459 295.951 26.0495 244.22 41.1363 196.565C47.3431 178.131 56.3378 160.563 68 145C68.6497 144.126 69.2994 143.252 69.9688 142.352C99.3212 104.758 142.128 83.1734 188.794 76.4536C193.095 75.9364 197.36 75.805 201.688 75.7617ZM176.172 131.129C168.668 141.418 166.724 153.53 168 166C170.181 177.409 175.503 188.017 184.617 195.434C197.624 203.984 211.349 206.023 226.531 203.387C238.721 199.746 247.774 191.693 254.242 180.934C260.29 169.655 260.814 156.272 257.375 144.062C253.321 132.581 245.894 123.309 235.063 117.625C213.62 107.761 191.349 113.455 176.172 131.129ZM84.75 196.312C76.4466 206.118 72.3768 218.293 73.0625 231.188C74.2672 240.812 77.5867 248.737 84 256C84.5247 256.606 85.0493 257.212 85.5899 257.836C95.0079 267.985 106.782 272.37 120.375 273.059C132.988 272.855 142.798 268.238 151.813 259.625C161.375 249.49 165.687 237.912 165.468 223.884C164.89 211.298 159.566 201.478 150.68 192.711C139.242 182.891 126.775 180.19 112.133 180.825C100.563 181.773 92.4493 188.182 84.75 196.312ZM271 198C262.004 209.736 259.514 221.447 261 236C263.451 248.605 270.613 259.52 281 267C292.251 273.946 304.095 275.696 317 272.875C330.409 269.158 340.067 261.659 347.457 250.039C351.04 242.982 352.539 236.524 352.438 228.625C352.43 227.794 352.422 226.964 352.415 226.108C352.237 219.451 351.1 213.949 348 208C347.564 207.141 347.129 206.283 346.68 205.398C340.187 193.655 330.933 186.543 318.063 182.625C300.92 179.225 282.852 185.183 271 198ZM184 235C177.786 244.894 176.323 255.513 178.578 266.926C182.181 277.195 190.047 284.116 199.52 288.941C207.935 292.533 217.836 292.242 226.313 289C236.334 284.257 243.055 277.013 247.313 266.875C249.115 256.716 249.144 246.555 243.523 237.664C237.56 229.468 229.953 223.461 220 221C205.44 219.171 193.571 223.869 184 235ZM120.867 308.199C113.423 317.174 108.356 328.97 108.754 340.781C110.376 355.409 116.814 366.568 128 376C139.112 384.178 150.469 386.204 164 385C171.636 383.327 177.777 379.604 184 375C184.866 374.423 185.733 373.845 186.625 373.25C195.418 364.919 200.935 353.364 201.344 341.264C201.556 326.342 196.697 315.979 186.316 305.262C176.085 295.766 164.464 292.442 150.809 292.699C138.652 293.659 129.268 299.537 120.867 308.199ZM255 296C254.328 296.255 253.657 296.51 252.965 296.773C242.114 301.476 233.138 311.433 228.688 322.25C224.642 332.97 224.563 344.403 228.672 355.152C235.011 368.744 244.15 378.116 258.063 383.875C270.285 387.501 282.58 385.316 293.645 379.645C305.612 372.952 312.877 363.019 317 350C320.121 336.382 315.953 323.754 309 312C302.857 302.759 292.585 296.775 282.188 293.414C273.121 291.698 263.504 292.513 255 296ZM439 352C439 367.51 439 383.02 439 399C444.61 399.99 450.22 400.98 456 402C457.98 402.66 459.96 403.32 462 404C464.63 400.055 464.306 396.642 464.301 392.062C464.305 391.186 464.309 390.31 464.314 389.406C464.32 387.554 464.32 385.701 464.316 383.849C464.313 381.011 464.336 378.174 464.361 375.336C464.364 373.536 464.364 371.737 464.363 369.938C464.373 369.087 464.382 368.237 464.391 367.362C464.513 363.026 464.513 363.026 462.605 359.321C456.119 353.984 446.863 353.31 439 352ZM412.125 359.062C405.229 363.373 398.196 367.125 391 371C391 385.85 391 400.7 391 416C397.581 412.354 397.581 412.354 404 408.438C409.659 404.846 415.795 402.482 422 400C422 385.15 422 370.3 422 355C417.94 355 415.456 356.965 412.125 359.062ZM343 382C328.512 397.725 310.86 409.17 292 419C292 419.33 292 419.66 292 420C319.06 420 346.12 420 374 420C374 404.82 374 389.64 374 374C370.184 373.835 366.369 373.67 362.438 373.5C360.654 373.391 360.654 373.391 358.834 373.279C350.518 373.106 347.581 375.265 343 382Z"/>
</svg>
